<?xml version="1.0" encoding="UTF-8" standalone="no"?>
<!-- Created with Inkscape (http://www.inkscape.org/) -->

<svg
   version="1.1"
   id="svg293"
   width="500"
   height="500"
   viewBox="0 0 500 500"
   sodipodi:docname="iconeM2.svg"
   xml:space="preserve"
   inkscape:version="1.2.2 (b0a8486541, 2022-12-01)"
   xmlns:inkscape="http://www.inkscape.org/namespaces/inkscape"
   xmlns:sodipodi="http://sodipodi.sourceforge.net/DTD/sodipodi-0.dtd"
   xmlns="http://www.w3.org/2000/svg"
   xmlns:svg="http://www.w3.org/2000/svg"><defs
     id="defs297" /><sodipodi:namedview
     id="namedview295"
     pagecolor="#ffffff"
     bordercolor="#000000"
     borderopacity="0.25"
     inkscape:showpageshadow="2"
     inkscape:pageopacity="0.0"
     inkscape:pagecheckerboard="0"
     inkscape:deskcolor="#d1d1d1"
     showgrid="false"
     inkscape:zoom="1.4517982"
     inkscape:cx="251.75675"
     inkscape:cy="250.72355"
     inkscape:window-width="1920"
     inkscape:window-height="955"
     inkscape:window-x="0"
     inkscape:window-y="0"
     inkscape:window-maximized="1"
     inkscape:current-layer="layer1" /><g
     inkscape:groupmode="layer"
     id="layer1"
     inkscape:label="Image 1"
     style="display:inline"><rect
       style="display:inline;fill:#1a1a1a;stroke:#1a1a1a;stroke-width:81.7114;stroke-linecap:round;stroke-linejoin:round;stroke-dasharray:none;stroke-opacity:1;paint-order:normal"
       id="rect1090"
       width="408.51312"
       height="407.31317"
       x="46.105068"
       y="44.740917" /></g><g
     inkscape:groupmode="layer"
     inkscape:label="Image"
     id="g299"
     style="display:inline"><path
       style="display:inline;fill:#ffffff;stroke-width:1.33333"
       d="m 138.91851,414.3998 c -1.3508,-2.99554 -4.84431,-7.49074 -7.76337,-9.98934 -5.31813,-4.55212 -17.32711,-9.89758 -22.23565,-9.89758 -1.43916,0 -2.61665,-0.68894 -2.61665,-1.53096 0,-2.12531 19.19613,-0.55928 25.51685,2.08168 6.84778,2.86118 12.82891,8.25982 15.96796,14.41288 1.48567,2.91214 2.50936,5.41826 2.27487,5.56916 -4.20785,2.70758 -7.77288,4.80057 -8.17694,4.80057 -0.28109,0 -1.61627,-2.45089 -2.96707,-5.44641 z m 107.0693,-133.22583 c -0.35163,-138.8529 -0.35163,-138.8529 -5.69755,-143.757 -2.94027,-2.69725 -7.42484,-6.46909 -9.96572,-8.38187 -4.61981,-3.47778 -4.61981,-3.47778 -0.22385,-5.75101 4.30568,-2.22656 4.48732,-2.20355 8.84553,1.12062 2.44727,1.86662 6.60641,5.42802 9.24255,7.91421 4.79296,4.52035 4.79296,4.52035 4.45352,145.69049 -0.33944,141.17013 -0.33944,141.17013 -3.32115,141.5938 -2.98171,0.42368 -2.98171,0.42368 -3.33333,-138.42924 z m 131.26224,131.21004 c -11.2212,-7.67696 -15.71575,-12.50335 -19.82543,-21.28919 -2.29527,-4.90689 -2.48244,-11.15172 -2.87491,-95.91528 -0.43768,-94.53004 -0.028,-103.69128 5.23462,-117.04251 2.64574,-6.7123 6.54792,-13.37253 7.35941,-12.56104 0.26381,0.26382 -0.73279,5.27431 -2.21469,11.13442 -2.59904,10.27784 -2.68136,14.07095 -2.32695,107.2286 0.36741,96.57387 0.36741,96.57387 3.43889,103.24053 3.76996,8.18268 7.73352,12.43542 18.92852,20.30951 11.7407,8.25789 11.4748,7.87077 6.99678,10.18645 -3.92324,2.02879 -4.1196,1.95818 -14.71624,-5.29149 z M 27.720005,407.96394 c -2.764417,-3.88226 -2.764417,-3.88226 7.575875,-13.45636 31.836959,-29.47789 73.42543,-48.04396 107.45758,-47.97156 20.0271,0.0427 34.33828,4.52906 48.48123,15.19851 8.26519,6.23527 8.26519,6.23527 17.78604,0.84013 5.23648,-2.96732 10.05495,-5.39512 10.70772,-5.39512 1.41224,0 6.60689,9.81499 6.4994,12.28022 -0.0589,1.35186 -62.41508,39.58673 -66.29551,40.65037 -0.52956,0.14516 -3.04717,-3.02429 -5.59469,-7.04323 -10.58515,-16.69898 -30.69925,-23.45525 -57.082426,-19.17384 -18.200207,2.95351 -40.823191,11.8438 -57.330705,22.52962 -4.608078,2.98294 -8.617222,5.42353 -8.909208,5.42353 -0.291988,0 -1.774875,-1.74703 -3.295306,-3.88227 z M 263.33298,272.84621 c -0.31471,-119.19627 -0.62952,-138.06823 -2.34648,-140.65964 -1.09065,-1.64614 -7.27179,-7.27394 -13.73587,-12.50621 -9.16784,-7.42083 -12.26738,-9.25526 -14.09222,-8.34036 -1.28667,0.64508 -6.65152,3.57288 -11.92189,6.50621 -9.58251,5.33333 -9.58251,5.33333 -9.61458,80 -0.034,79.06668 -0.49238,86.00536 -6.4432,97.52531 -4.35428,8.42929 -12.85544,15.32536 -39.34281,31.91453 -25.13356,15.74129 -25.13356,15.74129 -27.63701,12.48405 -3.01334,-3.92064 -3.26757,-7.36812 -0.61831,-8.38474 1.06944,-0.41038 4.04815,-3.92458 6.61935,-7.80932 8.72634,-13.18434 8.87196,-15.04718 8.46558,-108.30066 -0.35636,-81.7775 -0.41098,-83.29992 -3.11968,-86.92711 -4.26997,-5.71788 -8.52123,-6.18063 -27.90969,-3.0379 -31.809023,5.156 -44.856179,3.33429 -51.456623,-7.18461 -3.414164,-5.44103 -2.9979,-19.023259 0.825838,-26.946219 2.383394,-4.93849 24.128649,-34.666664 25.357609,-34.666664 1.25988,0 11.273176,6.706595 11.273176,7.550414 0,0.5065 -2.37608,4.41486 -5.28018,8.68525 -6.477266,9.5246 -7.705189,13.92182 -4.721016,16.90599 3.883376,3.88339 11.608566,2.59784 31.655796,-5.26785 26.68309,-10.46933 30.94827,-11.62546 43.01207,-11.65903 19.86876,-0.0553 30.08964,7.70167 38.80029,29.446799 1.15968,2.89498 2.08955,2.46137 27.86638,-12.994379 14.66667,-8.79412 27.35344,-15.99183 28.19283,-15.99491 0.83937,-0.003 12.14885,8.11671 25.13215,18.04401 23.606,18.049629 23.606,18.049629 52.69177,0 15.99717,-9.9273 29.84637,-18.04963 30.77599,-18.04963 0.92961,0 12.39709,6.03711 25.48328,13.41581 13.0862,7.37869 25.85826,14.278689 28.38237,15.333329 8.9918,3.75701 14.95763,2.34181 35.51448,-8.424679 1.25505,-0.65733 8.07852,11.523439 7.22703,12.901169 -0.40392,0.65356 -5.68414,4.0821 -11.73382,7.61899 -19.18906,11.21869 -26.80124,20.35852 -30.1669,36.22101 -1.03386,4.87259 -1.49918,38.09664 -1.49918,107.04283 0,111.15817 -0.30632,107.21448 8.65995,111.4902 3.53653,1.68645 5.40648,1.92566 7.07371,0.90492 15.04048,-9.2084 14.56249,-9.1236 17.6221,-3.12628 1.55668,3.05134 2.55382,6.26852 2.21584,7.14925 -0.33797,0.88073 -12.52984,8.72455 -27.09304,17.43068 -14.56321,8.70613 -27.70298,16.61409 -29.1995,17.57323 -2.44351,1.56608 -4.02606,0.87114 -15.52038,-6.81534 -13.16256,-8.80205 -16.89038,-12.72546 -19.55474,-20.58074 -2.44918,-7.22086 -2.09908,-188.59863 0.38666,-200.32635 3.15414,-14.8811 9.60814,-25.54765 20.821,-34.41091 6.52227,-5.15556 6.52227,-5.15556 -20.69732,-21.11284 -27.21958,-15.95728 -27.21958,-15.95728 -39.24313,-8.74921 -12.02355,7.20808 -12.02355,7.20808 -12.41401,132.83651 -0.43427,139.7225 0.2153,130.21662 -9.38907,137.39874 -5.68897,4.2542 -44.03899,23.56302 -46.79944,23.56302 -1.95052,0 -2.17413,-12.28838 -2.50516,-137.66667 z m -129.42389,43.33333 c 0.58322,-2.75 1.06041,-43.50176 1.06041,-90.55945 0,-85.55945 0,-85.55945 -3.16876,-88.93224 -3.16876,-3.37279 -3.16876,-3.37279 0.43166,-4.27644 4.69803,-1.17913 9.80156,1.22121 10.75018,5.05612 0.41432,1.67494 0.58087,40.24535 0.37011,85.71201 -0.38319,82.66667 -0.38319,82.66667 -4.14792,90.33334 -4.34538,8.84913 -6.87728,10.12408 -5.29568,2.66666 z M 359.63618,137.00168 c -9.9,-5.89402 -18.48081,-11.176 -19.06847,-11.73773 -0.58765,-0.56173 0.46399,-2.02542 2.33698,-3.25265 3.35592,-2.19889 3.66217,-2.08221 21.06845,8.0269 9.71468,5.64202 18.21887,10.74274 18.8982,11.33494 1.17016,1.02006 -2.66417,6.55255 -4.44181,6.40901 -0.43634,-0.0352 -8.89335,-4.88645 -18.79335,-10.78047 z M 61.675601,134.13731 c -11.806952,-6.68724 -14.675169,-19.26557 -7.857342,-34.457709 1.93348,-4.30836 4.097673,-7.83339 4.809317,-7.83339 0.711645,0 0.977975,0.82329 0.591843,1.82953 -0.386132,1.00625 -1.109758,4.54827 -1.608055,7.871149 -2.0239,13.49633 5.768293,26.72491 19.358143,32.86375 6,2.71034 6,2.71034 -2,2.71769 -5.846698,0.005 -9.424923,-0.7997 -13.293906,-2.99102 z"
       id="path1330" /></g></svg>
